<?xml version="1.0" encoding="UTF-8" standalone="no"?>
<!-- Created with Inkscape (http://www.inkscape.org/) -->

<svg
   xmlns:dc="http://purl.org/dc/elements/1.1/"
   xmlns:cc="http://creativecommons.org/ns#"
   xmlns:rdf="http://www.w3.org/1999/02/22-rdf-syntax-ns#"
   xmlns:svg="http://www.w3.org/2000/svg"
   xmlns="http://www.w3.org/2000/svg"
   version="1.1"
   width="837"
   height="531"
   id="svg2984">
  <metadata
     id="metadata2990">
    <rdf:RDF>
      <cc:Work
         rdf:about="">
        <dc:format>image/svg+xml</dc:format>
        <dc:type
           rdf:resource="http://purl.org/dc/dcmitype/StillImage" />
        <dc:title></dc:title>
      </cc:Work>
    </rdf:RDF>
  </metadata>
  <defs
     id="defs2988">
    <marker
       refX="0"
       refY="0"
       orient="auto"
       id="Arrow1Lend"
       style="overflow:visible">
      <path
         d="M 0,0 5,-5 -12.5,0 5,5 0,0 z"
         transform="matrix(-0.8,0,0,-0.8,-10,0)"
         id="path4139"
         style="fill-rule:evenodd;stroke:#000000;stroke-width:1pt;marker-start:none" />
    </marker>
    <marker
       refX="0"
       refY="0"
       orient="auto"
       id="Arrow1Lstart"
       style="overflow:visible">
      <path
         d="M 0,0 5,-5 -12.5,0 5,5 0,0 z"
         transform="matrix(0.8,0,0,0.8,10,0)"
         id="path4136"
         style="fill-rule:evenodd;stroke:#000000;stroke-width:1pt;marker-start:none" />
    </marker>
  </defs>
  <path
     d="m 400.95496,218.80058 c 0.95694,0.23924 21.73989,0.89173 37.32039,-10.0478 0.38699,-0.27172 0.7508,-0.93423 1.17355,-0.75613 7.94031,3.34533 25.67758,1.2975 43.7165,1.24913 9.63044,-0.0258 27.67325,2.09277 39.53821,3.94936 0.31933,0.05 0.0475,0.40476 -0.577,0.70116 -30.35589,14.4078 -59.29039,19.92062 -72.48812,19.8473 -1.81825,-0.0101 -3.58044,0.0153 -5.26186,-0.17942 -31.90329,-3.69388 -43.42167,-14.7636 -43.42167,-14.7636 z"
     id="path2994"
     style="fill:#000000;fill-opacity:1;stroke:#000000;stroke-width:1px;stroke-linecap:butt;stroke-linejoin:miter;stroke-opacity:1" />
  <path
     d="m 351.48649,209.57788 c 0,0 6.07258,1.75763 15.35376,1.7074 16.98434,-0.0919 43.5142,-2.63531 59.20955,-15.77421 0.26471,-0.22159 0.62071,-0.67594 0.35931,-0.83619 -12.07491,-7.40246 -15.70507,-8.85766 -29.68816,-9.27721 -11.60691,-0.34826 -45.23446,24.18021 -45.23446,24.18021 z"
     id="path3768"
     style="fill:#000000;fill-opacity:1;stroke:#000000;stroke-width:1px;stroke-linecap:butt;stroke-linejoin:miter;stroke-opacity:1" />
  <path
     d="m 450.59517,187.85872 c 0,0 17.25718,1.46799 31.69208,0.4507 17.70341,-1.24765 39.95037,-7.56034 45.60256,-8.83179 0.54044,-0.12157 1.20481,0.0645 0.82333,0.49151 -2.25287,2.52168 -27.77146,14.1131 -46.00316,16.41075 -1.1019,0.13887 -2.04177,0.0648 -3.00114,-0.076 -12.11218,-1.77793 -26.33565,-3.88924 -29.11367,-8.44519 z"
     id="path3800"
     style="fill:#000000;fill-opacity:1;stroke:#000000;stroke-width:1px;stroke-linecap:butt;stroke-linejoin:miter;stroke-opacity:1" />
  <path
     d="m 538.97757,199.45853 c 0,0 26.85618,-17.75091 40.82301,-25.37333 1.07378,-0.58602 3.2466,-1.93376 4.20725,-1.69432 6.38687,1.59194 39.09221,-3.41438 39.09221,-3.41438 0,0 55.08313,0.76807 127.27234,-71.058737 1.32447,-1.317826 3.05871,-2.201463 3.56268,-1.679366 -0.90361,2.514351 -1.11457,2.458861 -2.71619,4.775163 -3.06807,3.60621 -4.80362,6.11585 -7.38885,10.08654 -4.01692,6.16964 -6.98302,8.82021 -11.30149,15.41487 -37.44625,57.18352 -96.72269,69.25888 -118.93521,76.41033 -11.15998,3.59302 -31.05816,3.39971 -41.73764,2.59289 -20.89138,-1.5783 -32.87811,-6.05966 -32.87811,-6.05966 z"
     id="path3802"
     style="fill:#000000;fill-opacity:1;stroke:#000000;stroke-width:1px;stroke-linecap:butt;stroke-linejoin:miter;stroke-opacity:1" />
  <path
     d="m 308.31627,257.00261 c 9.2255,-16.51366 28.50803,-31.69255 46.68103,-32.10475 10.9159,-0.2476 34.68789,7.01138 35.33367,11.0706 0.63644,4.00052 -28.23003,17.15943 -52.40084,21.58768 -9.16162,1.67846 -29.61386,-0.55353 -29.61386,-0.55353 z"
     id="path3002"
     style="fill:#000000;fill-opacity:1;stroke:#000000;stroke-width:1px;stroke-linecap:butt;stroke-linejoin:miter;stroke-opacity:1" />
  <path
     d="m 305.01082,271.42709 c 0.50774,0.0438 0.50364,-0.31635 0.99982,-0.27117 12.95358,1.17933 22.51665,3.1533 30.04548,1.85467 17.04801,-2.94056 25.1196,-7.75659 25.1196,-7.75659 0,0 17.59134,6.65106 16.39408,9.41142 -2.81459,6.48926 -18.11822,13.50888 -36.22889,18.82283 -11.97563,3.51383 -35.25453,5.35301 -41.59238,2.02396 -1.54425,-0.81114 -0.60719,-1.61916 -0.60719,-1.61916 z"
     id="path3772"
     style="fill:#000000;fill-opacity:1;stroke:#000000;stroke-width:1px;stroke-linecap:butt;stroke-linejoin:miter;stroke-opacity:1" />
  <path
     d="m 286.48921,328.26294 c 0,0 2.71522,-17.83355 9.38659,-19.96302 0.19188,-0.0612 0.64711,-0.0849 1.32442,-0.0723 21.40706,0.39779 44.95858,4.79552 48.78144,7.34359 1.02757,0.6849 0.85934,0.79323 0.13221,2.31359 -0.72713,1.52036 -18.77318,10.17982 -31.531,12.49342 -12.75783,2.3136 -28.09366,-2.11529 -28.09366,-2.11529 z"
     id="path3774"
     style="fill:#000000;fill-opacity:1;stroke:#000000;stroke-width:1px;stroke-linecap:butt;stroke-linejoin:miter;stroke-opacity:1" />
  <path
     d="m 246.53203,344.61133 a 17.352188,16.861088 0 1 1 -34.70438,0 17.352188,16.861088 0 1 1 34.70438,0 z"
     transform="matrix(1,0,0,-1.0135922,0.32739977,693.87396)"
     id="path3778"
     style="fill:#000000;fill-opacity:1" />
  <path
     d="m 204.92776,406.61948 a 15.914008,15.634815 0 1 1 -31.82802,0 15.914008,15.634815 0 1 1 31.82802,0 z"
     transform="matrix(1.0438596,0,0,1.0401786,-7.4524973,-14.31324)"
     id="path3915"
     style="fill:#000000;fill-opacity:1" />
  <path
     d="m 141.96971,361.80896 a 17.240175,16.611992 0 1 1 -34.48035,0 17.240175,16.611992 0 1 1 34.48035,0 z"
     transform="matrix(1.0161943,0,0,1.0378151,0.91161638,-12.91407)"
     id="path3917"
     style="fill:#000000;fill-opacity:1" />
  <path
     d="m 105.73866,296.20253 c 0,0 0.39735,-3.49089 3.46326,-6.22683 3.05709,-2.72805 6.8854,-4.50489 12.45827,-5.31817 13.27878,-1.93784 12.75232,0.94318 12.75232,0.94318 0,0 3.05896,1.33465 0.87159,8.79814 -2.64483,9.02436 -14.39348,12.96746 -14.39348,12.96746 -2.43253,0.48778 -4.27295,0.53928 -6.56855,0.20366 0,0 -8.63245,-0.60385 -8.58341,-11.36744 z"
     id="path3919"
     style="fill:#000000;fill-opacity:1;stroke:#000000;stroke-width:1px;stroke-linecap:butt;stroke-linejoin:miter;stroke-opacity:1" />
  <path
     d="m 201.21758,265.46969 c 3.66703,0.0555 10.78099,3.21317 14.23424,5.84148 5.73567,4.36549 7.00621,9.0909 7.00621,9.0909 0,0 0.41742,4.17772 -2.21768,6.55448 -2.51338,2.26696 -9.36355,2.90763 -9.36355,2.90763 0,0 -7.25456,-0.0564 -14.17739,-6.01007 -4.24258,-4.00514 -6.26159,-8.67096 -6.00714,-11.83831 0.2656,-3.30623 4.98093,-6.45505 10.52531,-6.54611 z"
     id="path3921"
     style="fill:#000000;fill-opacity:1;stroke:#000000;stroke-width:1px;stroke-linecap:butt;stroke-linejoin:miter;stroke-opacity:1" />
  <path
     d="m 241.23657,381.95517 c 0,0 10.52835,-11.81007 10.6199,-13.00023 2.13774,5.76334 10.14276,13.83923 24.53564,23.52858 19.73928,11.76543 15.71092,8.23389 34.86921,17.96835 0.64633,0.25031 0.36922,1.49509 -0.3232,1.4448 -13.42993,-0.9754 -16.48478,-0.36795 -37.10944,-5.31431 0,0 -14.37349,-1.83102 -32.59211,-24.62719 z"
     id="path3923"
     style="fill:#000000;fill-opacity:1;stroke:#000000;stroke-width:1px;stroke-linecap:butt;stroke-linejoin:miter;stroke-opacity:1" />
  <path
     d="m 263.53216,362.77291 c 0,0 -0.3267,-1.95256 1.077,-1.1786 11.41018,6.29125 24.872,15.32077 38.8306,5.28743 0.16988,-0.1221 0.76881,-0.29051 0.70407,0.0752 -2.30712,13.03241 25.44079,21.81684 51.1081,28.36089 18.77672,4.78725 37.97096,8.63657 37.97096,8.63657 0.25383,0.35537 -10.43131,2.62221 -28.81861,1.22909 -26.67486,-2.02102 -68.7263,-9.12782 -100.87212,-42.41062 z"
     id="path3925"
     style="fill:#000000;fill-opacity:1;stroke:#000000;stroke-width:1px;stroke-linecap:butt;stroke-linejoin:miter;stroke-opacity:1" />
  <path
     d="m 256.1756,424.93562 c 7.1014,-1.2841 8.66176,2.52356 9.02481,4.51085 -0.30616,5.66985 -4.31003,11.3063 -9.42711,15.23104 -2.64125,2.11876 -20.18535,12.6361 -23.45632,2.32496 0.0915,-9.75041 18.94787,-21.03595 23.85862,-22.06685 z"
     id="path3927"
     style="fill:#000000;fill-opacity:1;stroke:#000000;stroke-width:1px;stroke-linecap:butt;stroke-linejoin:miter;stroke-opacity:1" />
  <path
     d="m 132.08211,450.21294 c 0.34518,-1.65084 7.6345,-5.20161 19.76011,0.0622 4.96579,2.15824 12.06349,3.54873 12.20201,10.66631 -0.62496,1.52599 -3.19105,4.86756 -8.31592,4.00197 -10.04998,-1.32218 -26.52996,-7.94269 -23.6462,-14.7305 z"
     id="path3929"
     style="fill:#000000;fill-opacity:1;stroke:#000000;stroke-width:1px;stroke-linecap:butt;stroke-linejoin:miter;stroke-opacity:1" />
  <path
     d="m 265.91714,351.21881 a 103.36314,111.75587 0 1 1 -206.726275,0 103.36314,111.75587 0 1 1 206.726275,0 z"
     id="path3931"
     style="fill:none" />
  <path
     d="m 261.49991,362.2619 a 97.179016,113.08104 0 1 1 -194.358034,0 97.179016,113.08104 0 1 1 194.358034,0 z"
     id="path3933"
     style="fill:none" />
  <path
     d="m 257.42621,410.54438 c -19.95061,37.60004 -59.50057,64.79855 -105.03185,64.79855 -65.624367,0 -119.755701,-53.63833 -119.755701,-119.2627 0,-65.62437 58.374591,-115.72995 123.998961,-115.72995 31.66641,0 60.43965,12.38715 81.73849,32.58022"
     transform="matrix(0.99800723,-0.01392922,0,0.99233644,29.698238,16.99074)"
     id="path3935"
     style="fill:none;stroke:#000000;stroke-width:8.68694401;stroke-miterlimit:4" />
  <path
     d="m 70.373085,343.73316 c 0,0 4.599744,-0.56458 4.990399,13.11037 m 0,0 c -1.318602,16.91807 -8.119971,18.26994 -8.119971,18.26994 0,0 -2.622074,-15.22495 3.129572,-31.38031"
     id="path3942"
     style="fill:#000000;fill-opacity:1;stroke:#000000;stroke-width:1px;stroke-linecap:butt;stroke-linejoin:miter;stroke-opacity:1" />
  <path
     d="M 588.21596,79.875677 C 731.12513,59.433716 719.50303,5.1509747 763.40491,5.2507632 780.28103,5.2891225 737.33569,79.81684 738.04368,78.867186 790.71718,8.214385 855.04714,1.5528874 800.71367,90.880445 788.25578,111.36197 769.32338,136.72402 747.88169,158.55132 l 26.73239,8.74289 c -23.66102,19.41924 -44.66155,32.26919 -72.57935,49.58626 l 22.29751,11.61739 -82.68116,49.88328 32.43663,5.16115 c -35.75361,20.60585 -69.91093,35.6935 -109.12318,51.83223 l 17.94817,18.25798 c -30.89459,13.63727 -59.92683,18.60306 -95.87634,25.14548 l 27.96354,16.19734 -78.55242,13.61197 20.70955,22.39991 -82.01971,-1.83118 27.61214,19.23092 -99.10949,-7.92391 c 0,0 -18.3866,18.85261 -25.20377,25.37378 -26.38003,25.2346 -62.57169,40.80328 -102.50349,40.80328 -80.721656,0 -146.159486,-63.62011 -146.159486,-142.0995 0,-78.47939 69.807894,-141.46476 150.529546,-141.46476 13.84233,0 29.67732,1.23608 41.21109,3.08152 C 275.30807,47.785138 493.54937,102.65363 588.21596,79.875677 z"
     transform="matrix(0.96087926,0,0,0.97286158,10.733077,13.882007)"
     id="path3944"
     style="fill:none;stroke:#000000;stroke-width:10.34284592;stroke-linecap:square;stroke-linejoin:miter;stroke-miterlimit:4;stroke-dasharray:none" />
  <path
     d="m 246.72355,251.11042 c 1.34322,-2.99515 25.9135,-109.4311 140.00192,-118.73031 68.74338,-5.60319 114.58377,-9.60911 149.03796,-10.74567 70.40543,-2.32251 85.01235,-5.93722 110.72117,-17.49901"
     id="path3951"
     style="fill:none;stroke:#000000;stroke-width:14.19999981;stroke-linecap:butt;stroke-linejoin:miter;stroke-miterlimit:4;stroke-opacity:1;stroke-dasharray:none;marker-end:none" />
  <path
     d="m 644.26472,98.016476 c 0,0 24.8209,-6.931096 71.31015,-40.585792 -1.9503,6.848365 -14.86001,22.930545 -22.76458,28.38027 -13.79976,9.514096 -18.32827,13.689401 -43.27769,24.133856 -4.33905,-8.77334 -5.26788,-11.928334 -5.26788,-11.928334 z"
     id="path5313"
     style="fill:#000000;fill-opacity:1;stroke:#000000;stroke-width:1px;stroke-linecap:butt;stroke-linejoin:miter;stroke-opacity:1" />
  <path
     d="m 249.21101,357.24023 c 0,0 20.31129,-9.05329 27.29366,-32.34369 6.15388,-20.52688 8.37962,-57.44121 18.58493,-80.00147 11.72936,-25.92941 23.85907,-50.97392 55.53676,-63.85568 48.95393,-19.90715 116.28367,-15.75599 131.59584,-14.64642 15.31216,1.10958 122.93051,0.012 162.60663,-12.39153 24.31389,-7.60101 87.93587,-50.63245 87.93587,-50.63245 0,0 -68.09231,43.9458 -129.29114,49.13641 -86.1802,5.00627 -158.96258,-2.92293 -211.79285,2.7918 -18.83556,4.94231 -66.12005,-0.83573 -98.30853,58.14184 -17.58926,37.15257 -16.83159,48.44891 -21.30388,93.6483 -6.9873,42.70474 -22.85729,50.15289 -22.85729,50.15289 z"
     id="path5315"
     style="fill:#000000;fill-opacity:1;stroke:#000000;stroke-width:1px;stroke-linecap:butt;stroke-linejoin:miter;stroke-opacity:1" />
  <path
     d="m 380.18586,260.35922 c 0,0 12.48492,-3.7589 17.58628,-6.71232 5.10137,-2.95342 9.66574,-9.79999 9.66574,-9.79999 0,0 3.88242,3.39301 7.11506,3.35616 5.90798,-0.0674 36.00612,-2.08752 40.67667,-1.87945 11.428,0.50912 42.03805,4.85799 38.12598,7.78629 -10.78739,8.07468 -51.55063,13.96163 -71.4191,15.57259 -15.28276,1.23915 -37.58899,-5.36986 -41.75063,-8.32328 z"
     id="path5317"
     style="fill:#000000;fill-opacity:1;stroke:#000000;stroke-width:1px;stroke-linecap:butt;stroke-linejoin:miter;stroke-opacity:1" />
  <path
     d="m 357.33868,301.48799 c 0,0 26.2521,-3.76612 39.212,-19.27369 13.73527,2.65844 19.64212,1.02034 29.57514,0.77538 10.58246,0.86036 14.46014,0.74774 30.46131,10.96605 -20.75584,13.67331 -62.69489,14.62143 -62.69489,14.62143 0,0 -25.58749,0.66461 -36.55356,-7.08917 z"
     id="path5319"
     style="fill:#000000;fill-opacity:1;stroke:#000000;stroke-width:1px;stroke-linecap:butt;stroke-linejoin:miter;stroke-opacity:1" />
  <path
     d="m 276.60333,348.68233 c 47.41916,-5.72605 62.52786,-2.53406 91.39936,-25.25509 18.27988,3.60787 26.38792,3.86056 27.28746,7.1951 -1.6451,3.9471 -7.98898,6.53898 -12.0454,8.79934 -23.85297,13.29162 -52.57257,24.09753 -106.64142,9.26065 z"
     id="path5321"
     style="fill:#000000;fill-opacity:1;stroke:#000000;stroke-width:1px;stroke-linecap:butt;stroke-linejoin:round;stroke-opacity:1" />
  <path
     d="m 342.4333,369.40729 c 0,0 28.20038,-5.22229 34.31793,-11.04142 7.91772,5.42566 15.47608,8.59107 30.02579,14.03064 9.56937,3.57761 24.29423,5.63733 39.95295,7.00775 -6.51756,6.42834 -25.21634,7.19657 -43.56885,6.41596 -12.06588,-0.51321 -51.32769,-3.43179 -60.72782,-16.41293 z"
     id="path5323"
     style="fill:#000000;fill-opacity:1;stroke:#000000;stroke-width:1px;stroke-linecap:butt;stroke-linejoin:miter;stroke-opacity:1" />
  <path
     d="m 400.53274,348.17518 c -0.71849,0.83824 24.78712,-5.97436 29.43262,-12.30253 9.81087,14.327 86.58484,9.3437 86.58484,9.3437 3.56388,0.28896 -56.32046,10.53493 -75.06096,10.90096 -20.05291,0.39166 -39.79244,-4.3234 -40.9565,-7.94213 z"
     id="path5325"
     style="fill:#000000;fill-opacity:1;stroke:#000000;stroke-width:1px;stroke-linecap:butt;stroke-linejoin:miter;stroke-opacity:1" />
  <path
     d="m 440.60911,320.60605 c 0,0 25.6024,-1.85823 36.95831,-18.78886 20.6471,14.45297 118.9273,-6.4006 118.9273,-6.4006 0,0 -97.04138,48.10774 -155.88561,25.18946 z"
     id="path5327"
     style="fill:#000000;fill-opacity:1;stroke:#000000;stroke-width:1px;stroke-linecap:butt;stroke-linejoin:miter;stroke-opacity:1" />
  <path
     d="m 471.78623,275.04857 c 0,0 23.391,4.09841 36.35366,-12.29381 70.2848,1.56069 79.0227,-5.06314 149.18317,-24.68407 -22.87962,19.50758 -30.38864,26.19417 -64.78074,38.03909 -35.50367,12.22776 -98.98783,29.78461 -120.75609,-1.06121 z"
     id="path5329"
     style="fill:#000000;fill-opacity:1;stroke:#000000;stroke-width:1px;stroke-linecap:butt;stroke-linejoin:miter;stroke-opacity:1" />
  <path
     d="m 523.29474,239.13976 18.36468,-14.21782 c 61.35705,2.70771 101.72491,-13.92312 154.61879,-40.08635 -39.29647,37.71672 -126.18315,77.40813 -172.98347,54.30417 z"
     id="path5331"
     style="fill:#000000;fill-opacity:1;stroke:#000000;stroke-width:1px;stroke-linecap:butt;stroke-linejoin:miter;stroke-opacity:1" />
</svg>
